<?xml version="1.0" encoding="UTF-8" standalone="no"?>
<svg
   fill="none"
   viewBox="0 0 150.1576 33.031122"
   version="1.1"
   id="svg15"
   sodipodi:docname="pt-senado-logo-colors.svg"
   width="150.15759"
   height="33.03112"
   inkscape:version="1.1.1 (3bf5ae0d25, 2021-09-20)"
   xmlns:inkscape="http://www.inkscape.org/namespaces/inkscape"
   xmlns:sodipodi="http://sodipodi.sourceforge.net/DTD/sodipodi-0.dtd"
   xmlns="http://www.w3.org/2000/svg"
   xmlns:svg="http://www.w3.org/2000/svg">
  <sodipodi:namedview
     id="namedview17"
     pagecolor="#ffffff"
     bordercolor="#666666"
     borderopacity="1.0"
     inkscape:pageshadow="2"
     inkscape:pageopacity="0.0"
     inkscape:pagecheckerboard="0"
     showgrid="false"
     inkscape:zoom="7.0459587"
     inkscape:cx="75.007536"
     inkscape:cy="16.463338"
     inkscape:window-width="1920"
     inkscape:window-height="1016"
     inkscape:window-x="-8"
     inkscape:window-y="-8"
     inkscape:window-maximized="1"
     inkscape:current-layer="g8" />
  <g
     clip-path="url(#a)"
     transform="scale(0.75079)"
     id="g8">
    <path
       fill="#bf0d0d"
       d="M 25.382,1.7300003 29.095,13.155 a 2.506,2.506 0 0 0 2.383,1.731 h 12.017 c 2.427,0 3.436,3.105 1.473,4.531 l -9.722,7.062 a 2.504,2.504 0 0 0 -0.91,2.8 l 3.713,11.426 c 0.75,2.308 -1.892,4.227 -3.855,2.8 l -9.722,-7.061 a 2.506,2.506 0 0 0 -2.946,0 l -9.722,7.061 c -1.963,1.426 -4.605,-0.492 -3.855,-2.8 l 3.713,-11.426 a 2.504,2.504 0 0 0 -0.91,-2.8 L 1.03,19.417 c -1.963,-1.426 -0.954,-4.53 1.473,-4.53 H 14.52 a 2.506,2.506 0 0 0 2.383,-1.732 L 20.616,1.7300003 c 0.75,-2.30799997 4.016,-2.30799997 4.766,0 z"
       id="path2"
       style="fill:#e4142c;fill-opacity:1" />
    <path
       fill="#ffffff"
       d="m 26.996,23.233 c 0,-0.316 -0.158,-0.474 -0.474,-0.474 h -2.215 c -0.3,0 -0.475,-0.174 -0.475,-0.475 v -1.771 c 0,-0.317 0.174,-0.475 0.475,-0.475 h 8.1 c 0.316,0 0.474,0.159 0.474,0.475 v 1.771 c 0,0.3 -0.158,0.475 -0.474,0.475 h -2.215 c -0.3,0 -0.474,0.158 -0.474,0.474 v 7.402 c 0,0.3 -0.159,0.474 -0.475,0.474 H 27.47 c -0.3,0 -0.474,-0.174 -0.474,-0.474 z m -8.005,1.677 c 0.76,0 1.14,-0.095 1.14,-1.076 0,-0.98 -0.38,-1.075 -1.14,-1.075 h -0.854 c -0.3,0 -0.474,0.158 -0.474,0.474 v 1.202 c 0,0.3 0.174,0.475 0.474,0.475 z m -0.095,-4.872 c 2.816,0 3.956,1.202 3.956,3.796 0,2.594 -1.14,3.796 -3.956,3.796 h -0.759 c -0.3,0 -0.474,0.158 -0.474,0.474 v 2.53 c 0,0.317 -0.159,0.475 -0.475,0.475 h -1.772 c -0.3,0 -0.475,-0.174 -0.475,-0.474 V 20.529 c 0,-0.317 0.159,-0.475 0.475,-0.49 h 3.48 z"
       id="path4" />
    <path
       fill="#333333"
       d="m 84.554,36.56 c -2.032,0 -3.719,-0.285 -5.06,-0.853 -1.34,-0.59 -2.356,-1.351 -3.047,-2.285 -0.69,-0.935 -1.057,-1.93 -1.097,-2.986 a 0.58,0.58 0 0 1 0.183,-0.427 0.67,0.67 0 0 1 0.487,-0.213 h 3.84 c 0.285,0 0.498,0.05 0.64,0.152 0.163,0.102 0.305,0.234 0.427,0.396 0.163,0.305 0.386,0.6 0.67,0.884 0.305,0.284 0.702,0.518 1.19,0.7 0.487,0.163 1.076,0.244 1.767,0.244 1.178,0 2.062,-0.182 2.651,-0.548 0.61,-0.366 0.915,-0.863 0.915,-1.493 0,-0.467 -0.163,-0.843 -0.488,-1.127 -0.325,-0.285 -0.854,-0.539 -1.585,-0.762 -0.711,-0.244 -1.666,-0.487 -2.865,-0.731 -1.544,-0.325 -2.865,-0.742 -3.962,-1.25 -1.077,-0.528 -1.9,-1.208 -2.468,-2.04 -0.57,-0.854 -0.854,-1.91 -0.854,-3.17 0,-1.238 0.346,-2.345 1.037,-3.32 0.71,-0.975 1.696,-1.737 2.956,-2.286 1.26,-0.548 2.753,-0.822 4.48,-0.822 1.402,0 2.631,0.183 3.688,0.548 1.076,0.366 1.98,0.853 2.712,1.463 0.731,0.609 1.28,1.259 1.646,1.95 0.386,0.67 0.589,1.33 0.61,1.98 a 0.69,0.69 0 0 1 -0.184,0.457 c -0.101,0.122 -0.254,0.183 -0.457,0.183 h -4.023 c -0.223,0 -0.416,-0.04 -0.579,-0.122 a 1.124,1.124 0 0 1 -0.426,-0.396 c -0.122,-0.447 -0.447,-0.833 -0.976,-1.158 -0.508,-0.345 -1.178,-0.518 -2.011,-0.518 -0.894,0 -1.595,0.163 -2.103,0.488 -0.488,0.304 -0.731,0.782 -0.731,1.432 0,0.406 0.132,0.761 0.396,1.066 0.284,0.305 0.741,0.569 1.371,0.792 0.65,0.224 1.534,0.457 2.652,0.701 1.849,0.345 3.342,0.782 4.48,1.31 1.137,0.508 1.97,1.178 2.499,2.011 0.548,0.813 0.823,1.838 0.823,3.077 0,1.381 -0.397,2.57 -1.19,3.565 -0.791,0.995 -1.878,1.767 -3.26,2.316 -1.361,0.528 -2.946,0.792 -4.754,0.792 z M 97.567,36.255 A 0.742,0.742 0 0 1 97.019,36.042 0.81,0.81 0 0 1 96.805,35.493 V 15.69 a 0.74,0.74 0 0 1 0.214,-0.548 0.743,0.743 0 0 1 0.548,-0.213 H 111.8 c 0.223,0 0.406,0.07 0.548,0.213 a 0.74,0.74 0 0 1 0.214,0.548 v 2.864 a 0.74,0.74 0 0 1 -0.214,0.549 0.742,0.742 0 0 1 -0.548,0.213 h -9.722 v 4.113 h 9.051 c 0.224,0 0.407,0.081 0.549,0.244 a 0.742,0.742 0 0 1 0.213,0.548 v 2.651 a 0.812,0.812 0 0 1 -0.213,0.548 0.742,0.742 0 0 1 -0.549,0.214 h -9.051 v 4.235 h 9.966 c 0.223,0 0.406,0.07 0.548,0.213 a 0.743,0.743 0 0 1 0.213,0.548 v 2.864 a 0.811,0.811 0 0 1 -0.213,0.549 0.742,0.742 0 0 1 -0.548,0.213 H 97.567 Z m 19.475,0 a 0.742,0.742 0 0 1 -0.549,-0.213 0.811,0.811 0 0 1 -0.213,-0.549 V 15.69 c 0,-0.223 0.071,-0.406 0.213,-0.548 a 0.742,0.742 0 0 1 0.549,-0.213 h 3.23 c 0.346,0 0.589,0.08 0.732,0.243 0.162,0.142 0.264,0.254 0.304,0.336 l 7.437,11.7 v -11.52 c 0,-0.223 0.071,-0.406 0.213,-0.548 a 0.742,0.742 0 0 1 0.549,-0.213 h 3.657 c 0.223,0 0.406,0.07 0.548,0.213 a 0.74,0.74 0 0 1 0.214,0.548 v 19.774 a 0.846,0.846 0 0 1 -0.214,0.579 0.742,0.742 0 0 1 -0.548,0.213 h -3.261 c -0.325,0 -0.569,-0.081 -0.732,-0.244 a 4.2,4.2 0 0 1 -0.274,-0.335 l -7.436,-11.273 v 11.09 a 0.812,0.812 0 0 1 -0.214,0.549 0.742,0.742 0 0 1 -0.548,0.213 h -3.657 z m 19.931,0 a 0.692,0.692 0 0 1 -0.457,-0.183 0.689,0.689 0 0 1 -0.182,-0.457 c 0,-0.101 0.01,-0.193 0.03,-0.274 l 7.162,-19.56 a 1.18,1.18 0 0 1 0.366,-0.58 c 0.203,-0.182 0.477,-0.274 0.822,-0.274 h 4.511 c 0.345,0 0.61,0.092 0.793,0.275 0.203,0.162 0.335,0.355 0.396,0.579 l 7.131,19.56 a 0.599,0.599 0 0 1 0.061,0.274 c 0,0.163 -0.071,0.315 -0.213,0.457 a 0.62,0.62 0 0 1 -0.457,0.183 h -3.749 c -0.305,0 -0.538,-0.071 -0.701,-0.213 -0.142,-0.163 -0.234,-0.305 -0.274,-0.427 l -1.189,-3.108 h -8.137 l -1.158,3.108 a 1.345,1.345 0 0 1 -0.274,0.427 c -0.143,0.142 -0.386,0.213 -0.732,0.213 z m 7.162,-8.135 h 5.669 l -2.834,-8.044 z m 16.641,8.135 a 0.742,0.742 0 0 1 -0.549,-0.213 0.811,0.811 0 0 1 -0.213,-0.549 V 15.69 c 0,-0.223 0.071,-0.406 0.213,-0.548 a 0.742,0.742 0 0 1 0.549,-0.213 h 7.924 c 1.991,0 3.687,0.324 5.089,0.974 1.402,0.63 2.479,1.564 3.231,2.804 0.751,1.218 1.158,2.732 1.219,4.54 0.02,0.893 0.03,1.675 0.03,2.345 0,0.67 -0.01,1.442 -0.03,2.316 -0.082,1.889 -0.488,3.453 -1.219,4.692 -0.712,1.239 -1.758,2.163 -3.139,2.773 -1.362,0.589 -3.038,0.883 -5.029,0.883 h -8.076 z m 4.723,-4.387 h 3.201 c 0.873,0 1.594,-0.132 2.163,-0.396 a 2.737,2.737 0 0 0 1.311,-1.31 c 0.305,-0.59 0.467,-1.361 0.487,-2.316 0.041,-0.59 0.061,-1.117 0.061,-1.584 0.021,-0.468 0.021,-0.935 0,-1.402 0,-0.467 -0.02,-0.985 -0.061,-1.554 -0.04,-1.381 -0.406,-2.387 -1.097,-3.016 -0.67,-0.65 -1.676,-0.975 -3.017,-0.975 H 165.5 Z m 25.052,4.692 c -1.869,0 -3.495,-0.305 -4.876,-0.914 -1.382,-0.61 -2.458,-1.524 -3.231,-2.742 -0.772,-1.24 -1.198,-2.783 -1.28,-4.632 a 114.448,114.448 0 0 1 0,-5.27 c 0.082,-1.829 0.508,-3.362 1.28,-4.601 0.793,-1.26 1.88,-2.204 3.262,-2.834 1.401,-0.63 3.017,-0.944 4.845,-0.944 1.849,0 3.464,0.315 4.846,0.944 1.382,0.63 2.469,1.575 3.261,2.834 0.793,1.239 1.219,2.772 1.28,4.6 a 56.536,56.536 0 0 1 0,5.271 c -0.061,1.849 -0.487,3.393 -1.28,4.632 -0.772,1.218 -1.849,2.132 -3.231,2.742 -1.381,0.61 -3.007,0.914 -4.876,0.914 z m 0,-4.388 c 1.077,0 1.951,-0.325 2.621,-0.974 0.691,-0.65 1.057,-1.686 1.097,-3.108 a 51.444,51.444 0 0 0 0,-4.997 c -0.04,-0.955 -0.223,-1.727 -0.548,-2.316 -0.305,-0.61 -0.732,-1.056 -1.28,-1.34 -0.549,-0.285 -1.179,-0.427 -1.89,-0.427 -0.691,0 -1.31,0.142 -1.859,0.427 -0.548,0.284 -0.985,0.73 -1.31,1.34 -0.325,0.59 -0.508,1.361 -0.549,2.316 a 105.41,105.41 0 0 0 0,4.997 c 0.061,1.422 0.427,2.457 1.097,3.108 0.691,0.65 1.565,0.974 2.621,0.974 z M 51.106,31.058 A 0.356,0.356 0 0 1 50.844,30.95 0.356,0.356 0 0 1 50.736,30.689 V 20.675 c 0,-0.113 0.036,-0.205 0.108,-0.277 a 0.356,0.356 0 0 1 0.262,-0.107 h 1.184 c 0.144,0 0.247,0.035 0.308,0.107 a 0.84,0.84 0 0 1 0.139,0.139 l 4.43,6.89 v -6.752 a 0.41,0.41 0 0 1 0.093,-0.277 0.375,0.375 0 0 1 0.277,-0.107 h 1.293 c 0.112,0 0.205,0.035 0.276,0.107 a 0.374,0.374 0 0 1 0.108,0.277 v 9.998 a 0.373,0.373 0 0 1 -0.108,0.277 0.356,0.356 0 0 1 -0.261,0.108 h -1.2 c -0.144,0 -0.247,-0.036 -0.308,-0.108 a 0.854,0.854 0 0 0 -0.138,-0.139 l -4.416,-6.736 v 6.614 c 0,0.102 -0.036,0.19 -0.108,0.261 a 0.375,0.375 0 0 1 -0.277,0.108 z m 13.877,0.153 c -0.912,0 -1.697,-0.148 -2.353,-0.445 a 3.45,3.45 0 0 1 -1.539,-1.4 c -0.369,-0.636 -0.569,-1.425 -0.6,-2.369 a 57.713,57.713 0 0 1 0,-2.63 c 0.031,-0.933 0.236,-1.713 0.616,-2.338 a 3.636,3.636 0 0 1 1.554,-1.415 c 0.666,-0.318 1.44,-0.477 2.323,-0.477 0.882,0 1.657,0.159 2.323,0.477 0.667,0.317 1.19,0.79 1.57,1.415 0.379,0.625 0.584,1.405 0.615,2.338 a 29.007,29.007 0 0 1 0,2.63 c -0.03,0.943 -0.23,1.733 -0.6,2.368 a 3.43,3.43 0 0 1 -1.554,1.4 c -0.657,0.298 -1.441,0.446 -2.354,0.446 z m 0,-1.768 c 0.667,0 1.211,-0.195 1.631,-0.585 0.421,-0.4 0.647,-1.046 0.678,-1.938 0.02,-0.451 0.03,-0.867 0.03,-1.246 0,-0.39 -0.01,-0.805 -0.03,-1.246 -0.02,-0.595 -0.134,-1.077 -0.339,-1.446 -0.195,-0.379 -0.462,-0.65 -0.8,-0.815 a 2.516,2.516 0 0 0 -1.17,-0.261 c -0.43,0 -0.815,0.087 -1.153,0.261 -0.339,0.164 -0.61,0.436 -0.816,0.816 -0.195,0.369 -0.302,0.85 -0.323,1.446 a 55.645,55.645 0 0 0 0,2.491 c 0.031,0.892 0.257,1.538 0.677,1.938 0.421,0.39 0.96,0.585 1.616,0.585 z"
       id="path6" />
  </g>
  <defs
     id="defs13">
    <clipPath
       id="a">
      <path
         fill="#ffffff"
         d="M 0,0 H 200 V 44 H 0 Z"
         id="path10" />
    </clipPath>
  </defs>
</svg>
